Simulation
nRows=20
nColumns=15
endheader
time  TH_x TH_y TH_z SC_y  SC_z  SC_x  AC_y  AC_z  AC_x  GH_y  GH_z  GH_yy  EL_x  PS_y
0.0  0.000000  0.000000  0.000000  -26.327362820666014  -1.173241927418554  3.772633196413837  52.06196726825989  4.895435502779479  -4.794041771767544  19.851516606971234  13.746199113615031  23.381786560864928  27.08541184610295  0.000000
0.039  0.000000  0.000000  0.000000  -26.19857877466439  -0.8102723179328662  3.7596476606964706  51.26711999641459  5.1370056771461  -5.0719299203424  19.81158017254787  13.736164998485187  23.504440301932625  26.7659189677979  0.000000
0.078  0.000000  0.000000  0.000000  -26.002628362849414  -0.6773256410605585  4.027539973389853  50.80496540854322  4.904293353648017  -5.522341172853136  19.853667209278534  13.470364439465982  23.575492922916094  26.223614221804404  0.000000
0.11699999999999999  0.000000  0.000000  0.000000  -25.905230399620294  -0.6846974919919039  4.566125480291507  50.642384178299764  4.511712363197027  -6.011576420015064  20.081793313718826  13.094868198820274  23.488257951908263  25.85234984719632  0.000000
0.156  0.000000  0.000000  0.000000  -25.783561396232376  -0.7594183162640639  5.125355451409103  50.66936585621096  4.095027329582641  -6.353965326062269  20.48881273069838  12.804991844078577  22.915220528788936  25.527042567875977  0.000000
0.195  0.000000  0.000000  0.000000  -25.70760434892456  -0.8647175781676921  5.592454024881328  50.94116769929402  3.7764751787185733  -6.5333226030254075  21.25837280452838  12.797840375926334  21.75443604124906  25.26720465553437  0.000000
0.23399999999999999  0.000000  0.000000  0.000000  -25.67208906214744  -0.9551990700884517  5.893099760948747  51.30032986126268  3.585285713775902  -6.492901078108868  22.486687539039927  13.15601923491296  19.864930135263467  25.082917629037745  0.000000
0.273  0.000000  0.000000  0.000000  -25.72463852698241  -1.0373174435909263  6.013374630681341  51.782537504844356  3.5331937381274896  -6.253014933189459  24.26262537241546  13.941156062251824  17.18215856832415  24.954240390994524  0.000000
0.312  0.000000  0.000000  0.000000  -25.877979242674797  -1.1147067171032312  5.965090296273705  52.33395172343667  3.6217856353186746  -5.830285575542473  26.58287542849352  15.139964627537598  13.727033850066654  24.877060600567336  0.000000
0.351  0.000000  0.000000  0.000000  -26.086098028159704  -1.1784461101036219  5.787095112698402  52.940187802292336  3.8244720593068977  -5.278420125744067  29.300023479699163  16.694332928921114  9.614030161816382  24.816477091387014  0.000000
0.39  0.000000  0.000000  0.000000  -26.28615311801252  -1.2153016296100603  5.5422337674977635  53.550321698004694  4.152361213065063  -4.683058329619446  32.193519690163335  18.50351682799416  5.118587467909405  24.796093840826643  0.000000
0.429  0.000000  0.000000  0.000000  -26.426819756074618  -1.2083451796014175  5.295239968563589  54.13571989764747  4.604553442350211  -4.111722192309133  35.012595625451375  20.47146137967728  0.5616808381595231  24.832508889131276  0.000000
0.46799999999999997  0.000000  0.000000  0.000000  -26.506003616875915  -1.1624955500596963  5.099748833466198  54.703341217043324  5.169402504337706  -3.602966552590641  37.56966421885055  22.540513047487647  -3.78089687658661  24.932179087549695  0.000000
0.507  0.000000  0.000000  0.000000  -26.52479934131944  -1.080706347905081  4.986764392183967  55.27208679688858  5.790758649602716  -3.152153949335784  39.758811727739534  24.68739303808377  -7.777287325898049  25.056098663318796  0.000000
0.546  0.000000  0.000000  0.000000  -26.487204345736167  -0.9707703057244478  4.966702152733878  55.85701448149074  6.428926342584025  -2.755176230926599  41.56932189572791  26.90041644060561  -11.407825205673667  25.17638402304219  0.000000
0.585  0.000000  0.000000  0.000000  -26.39868735094935  -0.8280725757156155  5.042007192496449  56.445022781366085  7.0609566902184016  -2.4102642927949183  43.067115661468264  29.160508869396782  -14.737189899526028  25.273386877759265  0.000000
0.624  0.000000  0.000000  0.000000  -26.294159298825925  -0.6474814392852377  5.208586360509603  57.00925517207358  7.692258345485658  -2.1243323006730086  44.36419001197657  31.439143871747472  -17.88637674689643  25.34076411832472  0.000000
0.663  0.000000  0.000000  0.000000  -26.216620674424366  -0.4203590320381041  5.459913512917947  57.51313033655229  8.332162207208553  -1.8974172975592682  45.57919503736683  33.70531527520104  -20.99201540299605  25.367100615247754  0.000000
0.702  0.000000  0.000000  0.000000  -26.194120091079895  -0.13981518663132406  5.78717501992233  57.935364800326624  8.9911858271453  -1.7209941490546954  46.788183892151814  35.93495129376469  -24.143944022122273  25.342807879888042  0.000000
0.741  0.000000  0.000000  0.000000  -26.216012916398398  0.202052541511306  6.17427856288928  58.27348259065053  9.6752227289073  -1.5696972107584612  47.99547902975368  38.12143622270382  -27.31408993876675  25.264871797860476  0.000000
